<svg width="1500" height="500" viewBox="0 0 1500 500" fill="none" xmlns="http://www.w3.org/2000/svg">
<g clip-path="url(#clip0_2016_20467)">
<rect width="1500" height="500" fill="black"/>
<g filter="url(#filter0_fn_2016_20467)">
<path d="M768.389 387.661L1201.58 405.686L1592 127L1399.5 474.624L972.794 553.961L768.389 387.661Z" fill="#CA233D"/>
</g>
<g filter="url(#filter1_fn_2016_20467)">
<path d="M0 0H174.469C174.469 0 105.032 169.11 174.469 220C218.973 252.617 330.048 220.754 381 237.5C469.387 266.55 416.973 361.298 508 400.5C599.027 439.702 700.59 417.13 786 457.5C845.503 485.625 995.209 424.327 1061.5 442C1159.5 415.5 1192.5 471.5 1192.5 471.5L1505.5 384L1348 503L0 530V0Z" fill="#E72D3A" fill-opacity="0.75"/>
</g>
<g filter="url(#filter2_fn_2016_20467)">
<path d="M0 0H136.833C136.833 0 244.732 141.965 347.04 184.84C416.361 213.89 452.144 205.05 523.535 244.253C594.926 283.455 626.103 303.847 693.089 344.217C780.496 396.895 938 530 938 530H0V0Z" fill="#E72D3A"/>
</g>
<g filter="url(#filter3_f_2016_20467)">
<path d="M0 0H98.8737L136.346 26.112L121.389 78.2918L186 220.641L129.221 246.441V419.275L167.4 500H0V0Z" fill="url(#paint0_linear_2016_20467)"/>
</g>
<g filter="url(#filter4_fn_2016_20467)">
<path d="M0 0H64.3211L88.6984 26.112L78.9684 78.2918L121 220.641L84.0632 246.441V419.275L108.9 500H0V0Z" fill="url(#paint1_linear_2016_20467)"/>
</g>
<g filter="url(#filter5_fn_2016_20467)">
<path d="M0 0H28.1737L38.8514 26.112L34.5895 78.2918L53 220.641L36.8211 246.441V419.275L47.7 500H0V0Z" fill="url(#paint2_linear_2016_20467)"/>
</g>
<rect width="219" height="52" transform="translate(1251 358)" fill="url(#paint3_linear_2016_20467)" fill-opacity="0.75"/>
<path d="M1258.95 392.456C1259.14 393.32 1259.54 394.184 1260.15 395.048C1260.79 395.88 1261.66 396.584 1262.74 397.16C1263.86 397.704 1265.29 397.976 1267.02 397.976C1269.48 397.976 1271.3 397.4 1272.49 396.248C1273.67 395.096 1274.26 393.736 1274.26 392.168C1274.26 390.92 1273.93 389.896 1273.26 389.096C1272.58 388.296 1271.67 387.64 1270.52 387.128C1269.37 386.584 1268.07 386.104 1266.63 385.688C1265.35 385.336 1264.07 384.952 1262.79 384.536C1261.54 384.088 1260.41 383.544 1259.38 382.904C1258.36 382.232 1257.54 381.368 1256.94 380.312C1256.33 379.256 1256.02 377.944 1256.02 376.376C1256.02 374.488 1256.47 372.856 1257.37 371.48C1258.26 370.072 1259.53 368.984 1261.16 368.216C1262.79 367.448 1264.7 367.064 1266.87 367.064C1268.76 367.064 1270.41 367.336 1271.82 367.88C1273.22 368.424 1274.39 369.192 1275.32 370.184C1276.28 371.144 1276.98 372.264 1277.43 373.544L1274.02 374.84C1273.8 374.104 1273.37 373.4 1272.73 372.728C1272.09 372.024 1271.26 371.448 1270.23 371C1269.21 370.552 1268.04 370.328 1266.73 370.328C1265.45 370.328 1264.28 370.552 1263.22 371C1262.2 371.448 1261.38 372.088 1260.78 372.92C1260.17 373.752 1259.86 374.76 1259.86 375.944C1259.86 377.224 1260.22 378.248 1260.92 379.016C1261.66 379.752 1262.62 380.36 1263.8 380.84C1265.02 381.288 1266.34 381.72 1267.78 382.136C1269.1 382.552 1270.36 383 1271.58 383.48C1272.82 383.96 1273.93 384.552 1274.89 385.256C1275.88 385.96 1276.66 386.84 1277.24 387.896C1277.82 388.952 1278.1 390.248 1278.1 391.784C1278.1 393.48 1277.7 395.064 1276.9 396.536C1276.1 397.976 1274.89 399.144 1273.26 400.04C1271.66 400.904 1269.59 401.336 1267.06 401.336C1264.95 401.336 1263.1 401.016 1261.5 400.376C1259.9 399.704 1258.58 398.808 1257.56 397.688C1256.54 396.568 1255.83 395.288 1255.45 393.848L1258.95 392.456ZM1285.79 377V370.28H1289.39V377H1295.78V380.36H1289.39V393.272C1289.39 394.744 1289.7 395.816 1290.31 396.488C1290.95 397.16 1291.75 397.56 1292.71 397.688C1293.7 397.816 1294.72 397.816 1295.78 397.688V400.808C1294.53 401.096 1293.3 401.176 1292.08 401.048C1290.9 400.92 1289.83 400.568 1288.87 399.992C1287.94 399.384 1287.19 398.536 1286.61 397.448C1286.07 396.36 1285.79 394.968 1285.79 393.272V380.36H1282.19V377H1285.79ZM1316.16 401L1315.87 396.68C1315.2 398.152 1314.21 399.304 1312.89 400.136C1311.58 400.936 1309.92 401.336 1307.9 401.336C1306.17 401.336 1304.7 401.064 1303.49 400.52C1302.27 399.976 1301.33 399.208 1300.65 398.216C1300.01 397.192 1299.69 395.992 1299.69 394.616C1299.69 392.6 1300.45 390.952 1301.95 389.672C1303.45 388.36 1305.63 387.56 1308.48 387.272L1315.87 386.456V384.536C1315.87 383.192 1315.37 382.12 1314.38 381.32C1313.39 380.488 1312.05 380.072 1310.35 380.072C1308.69 380.072 1307.29 380.456 1306.17 381.224C1305.09 381.992 1304.33 383.096 1303.92 384.536L1300.65 383.384C1301.29 381.272 1302.46 379.624 1304.16 378.44C1305.89 377.256 1307.98 376.664 1310.45 376.664C1313.29 376.664 1315.5 377.4 1317.07 378.872C1318.67 380.312 1319.47 382.28 1319.47 384.776V401H1316.16ZM1315.87 389.528L1308.43 390.392C1306.83 390.584 1305.61 391.032 1304.78 391.736C1303.95 392.408 1303.53 393.304 1303.53 394.424C1303.53 395.544 1303.93 396.44 1304.73 397.112C1305.57 397.784 1306.75 398.12 1308.29 398.12C1310.05 398.12 1311.49 397.768 1312.61 397.064C1313.73 396.36 1314.54 395.416 1315.05 394.232C1315.6 393.016 1315.87 391.704 1315.87 390.296V389.528ZM1342.76 377H1346.51L1332.78 410.6H1329.32L1333.4 400.664L1323.71 377H1327.64L1335.32 396.392L1342.76 377ZM1366.81 392.456C1367 393.32 1367.4 394.184 1368.01 395.048C1368.65 395.88 1369.52 396.584 1370.6 397.16C1371.72 397.704 1373.15 397.976 1374.88 397.976C1377.34 397.976 1379.16 397.4 1380.35 396.248C1381.53 395.096 1382.12 393.736 1382.12 392.168C1382.12 390.92 1381.79 389.896 1381.12 389.096C1380.44 388.296 1379.53 387.64 1378.38 387.128C1377.23 386.584 1375.93 386.104 1374.49 385.688C1373.21 385.336 1371.93 384.952 1370.65 384.536C1369.4 384.088 1368.27 383.544 1367.24 382.904C1366.22 382.232 1365.4 381.368 1364.8 380.312C1364.19 379.256 1363.88 377.944 1363.88 376.376C1363.88 374.488 1364.33 372.856 1365.23 371.48C1366.12 370.072 1367.39 368.984 1369.02 368.216C1370.65 367.448 1372.56 367.064 1374.73 367.064C1376.62 367.064 1378.27 367.336 1379.68 367.88C1381.08 368.424 1382.25 369.192 1383.18 370.184C1384.14 371.144 1384.84 372.264 1385.29 373.544L1381.88 374.84C1381.66 374.104 1381.23 373.4 1380.59 372.728C1379.95 372.024 1379.12 371.448 1378.09 371C1377.07 370.552 1375.9 370.328 1374.59 370.328C1373.31 370.328 1372.14 370.552 1371.08 371C1370.06 371.448 1369.24 372.088 1368.64 372.92C1368.03 373.752 1367.72 374.76 1367.72 375.944C1367.72 377.224 1368.08 378.248 1368.78 379.016C1369.52 379.752 1370.48 380.36 1371.66 380.84C1372.88 381.288 1374.2 381.72 1375.64 382.136C1376.96 382.552 1378.22 383 1379.44 383.48C1380.68 383.96 1381.79 384.552 1382.75 385.256C1383.74 385.96 1384.52 386.84 1385.1 387.896C1385.68 388.952 1385.96 390.248 1385.96 391.784C1385.96 393.48 1385.56 395.064 1384.76 396.536C1383.96 397.976 1382.75 399.144 1381.12 400.04C1379.52 400.904 1377.45 401.336 1374.92 401.336C1372.81 401.336 1370.96 401.016 1369.36 400.376C1367.76 399.704 1366.44 398.808 1365.42 397.688C1364.4 396.568 1363.69 395.288 1363.31 393.848L1366.81 392.456ZM1407.14 401L1406.85 396.68C1406.18 398.152 1405.19 399.304 1403.88 400.136C1402.57 400.936 1400.9 401.336 1398.89 401.336C1397.16 401.336 1395.69 401.064 1394.47 400.52C1393.25 399.976 1392.31 399.208 1391.64 398.216C1391 397.192 1390.68 395.992 1390.68 394.616C1390.68 392.6 1391.43 390.952 1392.93 389.672C1394.44 388.36 1396.61 387.56 1399.46 387.272L1406.85 386.456V384.536C1406.85 383.192 1406.36 382.12 1405.37 381.32C1404.37 380.488 1403.03 380.072 1401.33 380.072C1399.67 380.072 1398.28 380.456 1397.16 381.224C1396.07 381.992 1395.32 383.096 1394.9 384.536L1391.64 383.384C1392.28 381.272 1393.45 379.624 1395.14 378.44C1396.87 377.256 1398.97 376.664 1401.43 376.664C1404.28 376.664 1406.49 377.4 1408.05 378.872C1409.65 380.312 1410.45 382.28 1410.45 384.776V401H1407.14ZM1406.85 389.528L1399.41 390.392C1397.81 390.584 1396.6 391.032 1395.77 391.736C1394.93 392.408 1394.52 393.304 1394.52 394.424C1394.52 395.544 1394.92 396.44 1395.72 397.112C1396.55 397.784 1397.73 398.12 1399.27 398.12C1401.03 398.12 1402.47 397.768 1403.59 397.064C1404.71 396.36 1405.53 395.416 1406.04 394.232C1406.58 393.016 1406.85 391.704 1406.85 390.296V389.528ZM1418.77 374.168C1418.77 372.408 1419.06 370.92 1419.64 369.704C1420.21 368.488 1421.13 367.608 1422.37 367.064C1423.65 366.488 1425.35 366.28 1427.46 366.44V369.656C1425.54 369.496 1424.21 369.816 1423.48 370.616C1422.74 371.384 1422.37 372.568 1422.37 374.168V377H1427.65V380.36H1422.37V401H1418.77V380.36H1415.41V377H1418.77V374.168ZM1443.12 401.336C1440.88 401.336 1438.88 400.792 1437.12 399.704C1435.39 398.616 1434.03 397.128 1433.04 395.24C1432.05 393.352 1431.55 391.192 1431.55 388.76C1431.55 386.424 1432.05 384.344 1433.04 382.52C1434.03 380.696 1435.39 379.272 1437.12 378.248C1438.85 377.192 1440.82 376.664 1443.02 376.664C1445.2 376.664 1447.14 377.144 1448.83 378.104C1450.56 379.064 1451.9 380.392 1452.86 382.088C1453.82 383.784 1454.27 385.72 1454.21 387.896C1454.21 388.248 1454.19 388.616 1454.16 389C1454.13 389.384 1454.1 389.8 1454.06 390.248H1435.49C1435.55 391.752 1435.92 393.08 1436.59 394.232C1437.26 395.384 1438.14 396.296 1439.23 396.968C1440.35 397.608 1441.62 397.928 1443.02 397.928C1444.88 397.928 1446.45 397.576 1447.73 396.872C1449.04 396.168 1449.98 395.16 1450.56 393.848L1453.68 395.096C1452.72 397.112 1451.33 398.664 1449.5 399.752C1447.68 400.808 1445.55 401.336 1443.12 401.336ZM1450.27 387.128C1450.3 385.752 1450 384.536 1449.36 383.48C1448.75 382.424 1447.89 381.592 1446.77 380.984C1445.65 380.376 1444.35 380.072 1442.88 380.072C1441.6 380.072 1440.43 380.376 1439.38 380.984C1438.32 381.592 1437.44 382.44 1436.74 383.528C1436.06 384.584 1435.66 385.784 1435.54 387.128H1450.27ZM1462.1 401.24C1461.37 401.24 1460.74 400.984 1460.23 400.472C1459.75 399.96 1459.51 399.336 1459.51 398.6C1459.51 397.864 1459.75 397.24 1460.23 396.728C1460.74 396.216 1461.37 395.96 1462.1 395.96C1462.81 395.96 1463.41 396.216 1463.93 396.728C1464.44 397.24 1464.69 397.864 1464.69 398.6C1464.69 399.336 1464.44 399.96 1463.93 400.472C1463.41 400.984 1462.81 401.24 1462.1 401.24Z" fill="#FFC9CC"/>
<path d="M913.064 316.4H938.264V319.76H927.608V350H923.768V319.76H913.064V316.4ZM943.993 326H947.305L947.497 329.504C948.137 328.64 948.905 327.904 949.801 327.296C950.729 326.688 951.737 326.272 952.825 326.048C953.945 325.792 955.129 325.776 956.377 326V329.6C955.033 329.344 953.817 329.344 952.729 329.6C951.673 329.856 950.761 330.336 949.993 331.04C949.225 331.744 948.633 332.64 948.217 333.728C947.801 334.784 947.593 336.016 947.593 337.424V350H943.993V326ZM976.314 350L976.026 345.68C975.354 347.152 974.362 348.304 973.05 349.136C971.738 349.936 970.074 350.336 968.058 350.336C966.33 350.336 964.858 350.064 963.642 349.52C962.426 348.976 961.482 348.208 960.81 347.216C960.17 346.192 959.85 344.992 959.85 343.616C959.85 341.6 960.602 339.952 962.106 338.672C963.61 337.36 965.786 336.56 968.634 336.272L976.026 335.456V333.536C976.026 332.192 975.53 331.12 974.538 330.32C973.546 329.488 972.202 329.072 970.506 329.072C968.842 329.072 967.45 329.456 966.33 330.224C965.242 330.992 964.49 332.096 964.074 333.536L960.81 332.384C961.45 330.272 962.618 328.624 964.314 327.44C966.042 326.256 968.138 325.664 970.602 325.664C973.45 325.664 975.658 326.4 977.226 327.872C978.826 329.312 979.626 331.28 979.626 333.776V350H976.314ZM976.026 338.528L968.586 339.392C966.986 339.584 965.77 340.032 964.938 340.736C964.106 341.408 963.69 342.304 963.69 343.424C963.69 344.544 964.09 345.44 964.89 346.112C965.722 346.784 966.906 347.12 968.442 347.12C970.202 347.12 971.642 346.768 972.762 346.064C973.882 345.36 974.698 344.416 975.21 343.232C975.754 342.016 976.026 340.704 976.026 339.296V338.528ZM996.873 350.336C994.537 350.336 992.489 349.824 990.729 348.8C988.969 347.776 987.593 346.352 986.601 344.528C985.641 342.672 985.161 340.528 985.161 338.096C985.161 335.632 985.641 333.472 986.601 331.616C987.593 329.728 988.969 328.272 990.729 327.248C992.489 326.192 994.537 325.664 996.873 325.664C999.337 325.664 1001.5 326.24 1003.35 327.392C1005.21 328.512 1006.55 330.08 1007.39 332.096L1004.07 333.248C1003.59 331.968 1002.71 330.96 1001.43 330.224C1000.19 329.456 998.729 329.072 997.065 329.072C995.433 329.072 994.009 329.44 992.793 330.176C991.609 330.912 990.681 331.952 990.009 333.296C989.369 334.64 989.049 336.224 989.049 338.048C989.049 340.736 989.769 342.896 991.209 344.528C992.649 346.128 994.569 346.928 996.969 346.928C998.601 346.928 1000.06 346.56 1001.34 345.824C1002.62 345.088 1003.56 344.096 1004.17 342.848L1007.43 344C1006.57 345.984 1005.21 347.536 1003.35 348.656C1001.5 349.776 999.337 350.336 996.873 350.336ZM1023.4 350.336C1021.16 350.336 1019.16 349.792 1017.4 348.704C1015.67 347.616 1014.31 346.128 1013.32 344.24C1012.33 342.352 1011.83 340.192 1011.83 337.76C1011.83 335.424 1012.33 333.344 1013.32 331.52C1014.31 329.696 1015.67 328.272 1017.4 327.248C1019.13 326.192 1021.1 325.664 1023.31 325.664C1025.48 325.664 1027.42 326.144 1029.11 327.104C1030.84 328.064 1032.19 329.392 1033.15 331.088C1034.11 332.784 1034.55 334.72 1034.49 336.896C1034.49 337.248 1034.47 337.616 1034.44 338C1034.41 338.384 1034.38 338.8 1034.35 339.248H1015.77C1015.83 340.752 1016.2 342.08 1016.87 343.232C1017.55 344.384 1018.43 345.296 1019.51 345.968C1020.63 346.608 1021.9 346.928 1023.31 346.928C1025.16 346.928 1026.73 346.576 1028.01 345.872C1029.32 345.168 1030.27 344.16 1030.84 342.848L1033.96 344.096C1033 346.112 1031.61 347.664 1029.79 348.752C1027.96 349.808 1025.83 350.336 1023.4 350.336ZM1030.55 336.128C1030.59 334.752 1030.28 333.536 1029.64 332.48C1029.03 331.424 1028.17 330.592 1027.05 329.984C1025.93 329.376 1024.63 329.072 1023.16 329.072C1021.88 329.072 1020.71 329.376 1019.66 329.984C1018.6 330.592 1017.72 331.44 1017.02 332.528C1016.35 333.584 1015.95 334.784 1015.82 336.128H1030.55ZM1052.24 316.4H1077.44V319.76H1066.78V350H1062.94V319.76H1052.24V316.4ZM1083.16 326H1086.48L1086.67 329.504C1087.31 328.64 1088.08 327.904 1088.97 327.296C1089.9 326.688 1090.91 326.272 1092 326.048C1093.12 325.792 1094.3 325.776 1095.55 326V329.6C1094.2 329.344 1092.99 329.344 1091.9 329.6C1090.84 329.856 1089.93 330.336 1089.16 331.04C1088.4 331.744 1087.8 332.64 1087.39 333.728C1086.97 334.784 1086.76 336.016 1086.76 337.424V350H1083.16V326ZM1115.49 350L1115.2 345.68C1114.53 347.152 1113.53 348.304 1112.22 349.136C1110.91 349.936 1109.25 350.336 1107.23 350.336C1105.5 350.336 1104.03 350.064 1102.81 349.52C1101.6 348.976 1100.65 348.208 1099.98 347.216C1099.34 346.192 1099.02 344.992 1099.02 343.616C1099.02 341.6 1099.77 339.952 1101.28 338.672C1102.78 337.36 1104.96 336.56 1107.81 336.272L1115.2 335.456V333.536C1115.2 332.192 1114.7 331.12 1113.71 330.32C1112.72 329.488 1111.37 329.072 1109.68 329.072C1108.01 329.072 1106.62 329.456 1105.5 330.224C1104.41 330.992 1103.66 332.096 1103.25 333.536L1099.98 332.384C1100.62 330.272 1101.79 328.624 1103.49 327.44C1105.21 326.256 1107.31 325.664 1109.77 325.664C1112.62 325.664 1114.83 326.4 1116.4 327.872C1118 329.312 1118.8 331.28 1118.8 333.776V350H1115.49ZM1115.2 338.528L1107.76 339.392C1106.16 339.584 1104.94 340.032 1104.11 340.736C1103.28 341.408 1102.86 342.304 1102.86 343.424C1102.86 344.544 1103.26 345.44 1104.06 346.112C1104.89 346.784 1106.08 347.12 1107.61 347.12C1109.37 347.12 1110.81 346.768 1111.93 346.064C1113.05 345.36 1113.87 344.416 1114.38 343.232C1114.93 342.016 1115.2 340.704 1115.2 339.296V338.528ZM1125.82 326H1129.13L1129.33 329.408C1130.09 328.224 1131.1 327.312 1132.35 326.672C1133.6 326 1135.05 325.664 1136.72 325.664C1138.54 325.664 1140.14 326.064 1141.52 326.864C1142.89 327.632 1143.97 328.8 1144.73 330.368C1145.5 331.904 1145.89 333.84 1145.89 336.176V350H1142.29V336.608C1142.29 334.112 1141.74 332.224 1140.65 330.944C1139.6 329.632 1138.06 328.976 1136.05 328.976C1133.97 328.976 1132.33 329.664 1131.15 331.04C1130 332.416 1129.42 334.448 1129.42 337.136V350H1125.82V326ZM1154.84 342.656C1155.03 343.616 1155.38 344.416 1155.89 345.056C1156.4 345.664 1157.06 346.128 1157.86 346.448C1158.69 346.768 1159.65 346.928 1160.74 346.928C1162.44 346.928 1163.72 346.608 1164.58 345.968C1165.48 345.296 1165.92 344.464 1165.92 343.472C1165.92 342.64 1165.65 341.968 1165.11 341.456C1164.6 340.944 1163.91 340.528 1163.04 340.208C1162.18 339.856 1161.22 339.552 1160.16 339.296C1159.33 339.104 1158.44 338.88 1157.48 338.624C1156.52 338.336 1155.6 337.952 1154.74 337.472C1153.88 336.992 1153.17 336.368 1152.63 335.6C1152.08 334.832 1151.81 333.824 1151.81 332.576C1151.81 331.2 1152.18 330 1152.92 328.976C1153.68 327.92 1154.72 327.104 1156.04 326.528C1157.38 325.952 1158.92 325.664 1160.64 325.664C1162.63 325.664 1164.39 326.096 1165.92 326.96C1167.49 327.824 1168.58 329.168 1169.19 330.992L1165.83 332.144C1165.6 331.312 1165.19 330.672 1164.58 330.224C1164 329.776 1163.35 329.472 1162.61 329.312C1161.91 329.152 1161.2 329.072 1160.5 329.072C1159.06 329.072 1157.89 329.36 1157 329.936C1156.13 330.48 1155.7 331.312 1155.7 332.432C1155.7 333.04 1155.84 333.552 1156.13 333.968C1156.42 334.352 1156.82 334.672 1157.33 334.928C1157.84 335.184 1158.45 335.408 1159.16 335.6C1159.86 335.76 1160.63 335.952 1161.46 336.176C1162.39 336.4 1163.33 336.688 1164.29 337.04C1165.25 337.36 1166.15 337.792 1166.98 338.336C1167.81 338.848 1168.48 339.52 1169 340.352C1169.54 341.152 1169.81 342.16 1169.81 343.376C1169.81 344.784 1169.43 346.016 1168.66 347.072C1167.89 348.096 1166.82 348.896 1165.44 349.472C1164.1 350.048 1162.53 350.336 1160.74 350.336C1158.28 350.336 1156.23 349.792 1154.6 348.704C1153 347.584 1151.92 345.952 1151.38 343.808L1154.84 342.656ZM1190.67 350L1190.39 345.68C1189.71 347.152 1188.72 348.304 1187.41 349.136C1186.1 349.936 1184.43 350.336 1182.42 350.336C1180.69 350.336 1179.22 350.064 1178 349.52C1176.79 348.976 1175.84 348.208 1175.17 347.216C1174.53 346.192 1174.21 344.992 1174.21 343.616C1174.21 341.6 1174.96 339.952 1176.47 338.672C1177.97 337.36 1180.15 336.56 1182.99 336.272L1190.39 335.456V333.536C1190.39 332.192 1189.89 331.12 1188.9 330.32C1187.91 329.488 1186.56 329.072 1184.87 329.072C1183.2 329.072 1181.81 329.456 1180.69 330.224C1179.6 330.992 1178.85 332.096 1178.43 333.536L1175.17 332.384C1175.81 330.272 1176.98 328.624 1178.67 327.44C1180.4 326.256 1182.5 325.664 1184.96 325.664C1187.81 325.664 1190.02 326.4 1191.59 327.872C1193.19 329.312 1193.99 331.28 1193.99 333.776V350H1190.67ZM1190.39 338.528L1182.95 339.392C1181.35 339.584 1180.13 340.032 1179.3 340.736C1178.47 341.408 1178.05 342.304 1178.05 343.424C1178.05 344.544 1178.45 345.44 1179.25 346.112C1180.08 346.784 1181.27 347.12 1182.8 347.12C1184.56 347.12 1186 346.768 1187.12 346.064C1188.24 345.36 1189.06 344.416 1189.57 343.232C1190.11 342.016 1190.39 340.704 1190.39 339.296V338.528ZM1211.23 350.336C1208.9 350.336 1206.85 349.824 1205.09 348.8C1203.33 347.776 1201.95 346.352 1200.96 344.528C1200 342.672 1199.52 340.528 1199.52 338.096C1199.52 335.632 1200 333.472 1200.96 331.616C1201.95 329.728 1203.33 328.272 1205.09 327.248C1206.85 326.192 1208.9 325.664 1211.23 325.664C1213.7 325.664 1215.86 326.24 1217.71 327.392C1219.57 328.512 1220.91 330.08 1221.74 332.096L1218.43 333.248C1217.95 331.968 1217.07 330.96 1215.79 330.224C1214.54 329.456 1213.09 329.072 1211.42 329.072C1209.79 329.072 1208.37 329.44 1207.15 330.176C1205.97 330.912 1205.04 331.952 1204.37 333.296C1203.73 334.64 1203.41 336.224 1203.41 338.048C1203.41 340.736 1204.13 342.896 1205.57 344.528C1207.01 346.128 1208.93 346.928 1211.33 346.928C1212.96 346.928 1214.42 346.56 1215.7 345.824C1216.98 345.088 1217.92 344.096 1218.53 342.848L1221.79 344C1220.93 345.984 1219.57 347.536 1217.71 348.656C1215.86 349.776 1213.7 350.336 1211.23 350.336ZM1229.22 326V319.28H1232.82V326H1239.2V329.36H1232.82V342.272C1232.82 343.744 1233.12 344.816 1233.73 345.488C1234.37 346.16 1235.17 346.56 1236.13 346.688C1237.12 346.816 1238.14 346.816 1239.2 346.688V349.808C1237.95 350.096 1236.72 350.176 1235.5 350.048C1234.32 349.92 1233.25 349.568 1232.29 348.992C1231.36 348.384 1230.61 347.536 1230.03 346.448C1229.49 345.36 1229.22 343.968 1229.22 342.272V329.36H1225.62V326H1229.22ZM1245.28 326H1248.83V350H1245.28V326ZM1247.1 321.2C1246.36 321.2 1245.76 320.96 1245.28 320.48C1244.8 320 1244.56 319.408 1244.56 318.704C1244.56 317.968 1244.8 317.36 1245.28 316.88C1245.76 316.4 1246.36 316.16 1247.1 316.16C1247.77 316.16 1248.35 316.4 1248.83 316.88C1249.34 317.36 1249.6 317.968 1249.6 318.704C1249.6 319.408 1249.34 320 1248.83 320.48C1248.35 320.96 1247.77 321.2 1247.1 321.2ZM1267.3 350.336C1265.03 350.336 1262.99 349.84 1261.2 348.848C1259.41 347.856 1258 346.448 1256.98 344.624C1255.95 342.768 1255.44 340.576 1255.44 338.048C1255.44 335.488 1255.95 333.28 1256.98 331.424C1258.03 329.568 1259.46 328.144 1261.25 327.152C1263.07 326.16 1265.12 325.664 1267.39 325.664C1269.67 325.664 1271.7 326.16 1273.49 327.152C1275.31 328.144 1276.74 329.568 1277.76 331.424C1278.82 333.248 1279.35 335.424 1279.35 337.952C1279.35 340.512 1278.82 342.72 1277.76 344.576C1276.71 346.432 1275.27 347.856 1273.44 348.848C1271.62 349.84 1269.57 350.336 1267.3 350.336ZM1267.25 346.928C1268.66 346.928 1269.99 346.624 1271.23 346.016C1272.48 345.376 1273.49 344.4 1274.26 343.088C1275.06 341.744 1275.46 340.048 1275.46 338C1275.46 335.92 1275.07 334.224 1274.31 332.912C1273.54 331.6 1272.53 330.64 1271.28 330.032C1270.07 329.392 1268.75 329.072 1267.35 329.072C1265.94 329.072 1264.63 329.392 1263.41 330.032C1262.19 330.64 1261.2 331.616 1260.43 332.96C1259.7 334.272 1259.33 335.952 1259.33 338C1259.33 340.08 1259.7 341.776 1260.43 343.088C1261.17 344.4 1262.13 345.376 1263.31 346.016C1264.53 346.624 1265.84 346.928 1267.25 346.928ZM1285.24 326H1288.55L1288.75 329.408C1289.51 328.224 1290.52 327.312 1291.77 326.672C1293.02 326 1294.47 325.664 1296.14 325.664C1297.96 325.664 1299.56 326.064 1300.94 326.864C1302.31 327.632 1303.39 328.8 1304.15 330.368C1304.92 331.904 1305.31 333.84 1305.31 336.176V350H1301.71V336.608C1301.71 334.112 1301.16 332.224 1300.07 330.944C1299.02 329.632 1297.48 328.976 1295.47 328.976C1293.39 328.976 1291.75 329.664 1290.57 331.04C1289.42 332.416 1288.84 334.448 1288.84 337.136V350H1285.24V326ZM1314.26 342.656C1314.45 343.616 1314.8 344.416 1315.31 345.056C1315.83 345.664 1316.48 346.128 1317.28 346.448C1318.11 346.768 1319.07 346.928 1320.16 346.928C1321.86 346.928 1323.14 346.608 1324 345.968C1324.9 345.296 1325.35 344.464 1325.35 343.472C1325.35 342.64 1325.07 341.968 1324.53 341.456C1324.02 340.944 1323.33 340.528 1322.47 340.208C1321.6 339.856 1320.64 339.552 1319.59 339.296C1318.75 339.104 1317.86 338.88 1316.9 338.624C1315.94 338.336 1315.03 337.952 1314.16 337.472C1313.3 336.992 1312.59 336.368 1312.05 335.6C1311.51 334.832 1311.23 333.824 1311.23 332.576C1311.23 331.2 1311.6 330 1312.34 328.976C1313.11 327.92 1314.15 327.104 1315.46 326.528C1316.8 325.952 1318.34 325.664 1320.07 325.664C1322.05 325.664 1323.81 326.096 1325.35 326.96C1326.91 327.824 1328 329.168 1328.61 330.992L1325.25 332.144C1325.03 331.312 1324.61 330.672 1324 330.224C1323.43 329.776 1322.77 329.472 1322.03 329.312C1321.33 329.152 1320.63 329.072 1319.92 329.072C1318.48 329.072 1317.31 329.36 1316.42 329.936C1315.55 330.48 1315.12 331.312 1315.12 332.432C1315.12 333.04 1315.27 333.552 1315.55 333.968C1315.84 334.352 1316.24 334.672 1316.75 334.928C1317.27 335.184 1317.87 335.408 1318.58 335.6C1319.28 335.76 1320.05 335.952 1320.88 336.176C1321.81 336.4 1322.75 336.688 1323.71 337.04C1324.67 337.36 1325.57 337.792 1326.4 338.336C1327.23 338.848 1327.91 339.52 1328.42 340.352C1328.96 341.152 1329.23 342.16 1329.23 343.376C1329.23 344.784 1328.85 346.016 1328.08 347.072C1327.31 348.096 1326.24 348.896 1324.87 349.472C1323.52 350.048 1321.95 350.336 1320.16 350.336C1317.7 350.336 1315.65 349.792 1314.02 348.704C1312.42 347.584 1311.35 345.952 1310.8 343.808L1314.26 342.656ZM1336.75 344.192H1340.98L1335.79 356.96H1333.2L1336.75 344.192ZM926.168 364.4C929.88 364.4 933.048 365.088 935.672 366.464C938.328 367.808 940.36 369.744 941.768 372.272C943.208 374.8 943.928 377.808 943.928 381.296C943.928 384.752 943.208 387.728 941.768 390.224C940.36 392.72 938.328 394.64 935.672 395.984C933.048 397.328 929.88 398 926.168 398H915.08V364.4H926.168ZM926.168 394.64C930.744 394.64 934.2 393.472 936.536 391.136C938.872 388.8 940.04 385.52 940.04 381.296C940.04 377.04 938.872 373.728 936.536 371.36C934.2 368.96 930.744 367.76 926.168 367.76H918.92V394.64H926.168ZM959.745 398.336C957.505 398.336 955.505 397.792 953.745 396.704C952.017 395.616 950.657 394.128 949.665 392.24C948.673 390.352 948.177 388.192 948.177 385.76C948.177 383.424 948.673 381.344 949.665 379.52C950.657 377.696 952.017 376.272 953.745 375.248C955.473 374.192 957.441 373.664 959.649 373.664C961.825 373.664 963.761 374.144 965.457 375.104C967.185 376.064 968.529 377.392 969.489 379.088C970.449 380.784 970.897 382.72 970.833 384.896C970.833 385.248 970.817 385.616 970.785 386C970.753 386.384 970.721 386.8 970.689 387.248H952.113C952.177 388.752 952.545 390.08 953.217 391.232C953.889 392.384 954.769 393.296 955.857 393.968C956.977 394.608 958.241 394.928 959.649 394.928C961.505 394.928 963.073 394.576 964.353 393.872C965.665 393.168 966.609 392.16 967.185 390.848L970.305 392.096C969.345 394.112 967.953 395.664 966.129 396.752C964.305 397.808 962.177 398.336 959.745 398.336ZM966.897 384.128C966.929 382.752 966.625 381.536 965.985 380.48C965.377 379.424 964.513 378.592 963.393 377.984C962.273 377.376 960.977 377.072 959.505 377.072C958.225 377.072 957.057 377.376 956.001 377.984C954.945 378.592 954.065 379.44 953.361 380.528C952.689 381.584 952.289 382.784 952.161 384.128H966.897ZM978.295 374V367.28H981.895V374H988.279V377.36H981.895V390.272C981.895 391.744 982.199 392.816 982.807 393.488C983.447 394.16 984.247 394.56 985.207 394.688C986.199 394.816 987.223 394.816 988.279 394.688V397.808C987.031 398.096 985.799 398.176 984.583 398.048C983.399 397.92 982.327 397.568 981.367 396.992C980.439 396.384 979.687 395.536 979.111 394.448C978.567 393.36 978.295 391.968 978.295 390.272V377.36H974.695V374H978.295ZM1003.71 398.336C1001.47 398.336 999.474 397.792 997.714 396.704C995.986 395.616 994.626 394.128 993.634 392.24C992.642 390.352 992.146 388.192 992.146 385.76C992.146 383.424 992.642 381.344 993.634 379.52C994.626 377.696 995.986 376.272 997.714 375.248C999.442 374.192 1001.41 373.664 1003.62 373.664C1005.79 373.664 1007.73 374.144 1009.43 375.104C1011.15 376.064 1012.5 377.392 1013.46 379.088C1014.42 380.784 1014.87 382.72 1014.8 384.896C1014.8 385.248 1014.79 385.616 1014.75 386C1014.72 386.384 1014.69 386.8 1014.66 387.248H996.082C996.146 388.752 996.514 390.08 997.186 391.232C997.858 392.384 998.738 393.296 999.826 393.968C1000.95 394.608 1002.21 394.928 1003.62 394.928C1005.47 394.928 1007.04 394.576 1008.32 393.872C1009.63 393.168 1010.58 392.16 1011.15 390.848L1014.27 392.096C1013.31 394.112 1011.92 395.664 1010.1 396.752C1008.27 397.808 1006.15 398.336 1003.71 398.336ZM1010.87 384.128C1010.9 382.752 1010.59 381.536 1009.95 380.48C1009.35 379.424 1008.48 378.592 1007.36 377.984C1006.24 377.376 1004.95 377.072 1003.47 377.072C1002.19 377.072 1001.03 377.376 999.97 377.984C998.914 378.592 998.034 379.44 997.33 380.528C996.658 381.584 996.258 382.784 996.13 384.128H1010.87ZM1030.95 398.336C1028.62 398.336 1026.57 397.824 1024.81 396.8C1023.05 395.776 1021.67 394.352 1020.68 392.528C1019.72 390.672 1019.24 388.528 1019.24 386.096C1019.24 383.632 1019.72 381.472 1020.68 379.616C1021.67 377.728 1023.05 376.272 1024.81 375.248C1026.57 374.192 1028.62 373.664 1030.95 373.664C1033.42 373.664 1035.58 374.24 1037.43 375.392C1039.29 376.512 1040.63 378.08 1041.46 380.096L1038.15 381.248C1037.67 379.968 1036.79 378.96 1035.51 378.224C1034.26 377.456 1032.81 377.072 1031.14 377.072C1029.51 377.072 1028.09 377.44 1026.87 378.176C1025.69 378.912 1024.76 379.952 1024.09 381.296C1023.45 382.64 1023.13 384.224 1023.13 386.048C1023.13 388.736 1023.85 390.896 1025.29 392.528C1026.73 394.128 1028.65 394.928 1031.05 394.928C1032.68 394.928 1034.14 394.56 1035.42 393.824C1036.7 393.088 1037.64 392.096 1038.25 390.848L1041.51 392C1040.65 393.984 1039.29 395.536 1037.43 396.656C1035.58 397.776 1033.42 398.336 1030.95 398.336ZM1048.94 374V367.28H1052.54V374H1058.92V377.36H1052.54V390.272C1052.54 391.744 1052.84 392.816 1053.45 393.488C1054.09 394.16 1054.89 394.56 1055.85 394.688C1056.84 394.816 1057.86 394.816 1058.92 394.688V397.808C1057.67 398.096 1056.44 398.176 1055.22 398.048C1054.04 397.92 1052.97 397.568 1052.01 396.992C1051.08 396.384 1050.33 395.536 1049.75 394.448C1049.21 393.36 1048.94 391.968 1048.94 390.272V377.36H1045.34V374H1048.94ZM1097.5 374.336C1097.5 372.32 1096.91 370.72 1095.73 369.536C1094.54 368.352 1092.61 367.76 1089.92 367.76H1081.95V380.912H1089.97C1091.73 380.912 1093.15 380.64 1094.24 380.096C1095.36 379.552 1096.18 378.784 1096.69 377.792C1097.23 376.8 1097.5 375.648 1097.5 374.336ZM1089.92 364.4C1092.54 364.4 1094.69 364.848 1096.35 365.744C1098.05 366.64 1099.31 367.84 1100.14 369.344C1100.98 370.816 1101.39 372.48 1101.39 374.336C1101.39 375.648 1101.17 376.896 1100.72 378.08C1100.3 379.264 1099.63 380.32 1098.7 381.248C1097.78 382.176 1096.59 382.912 1095.15 383.456C1093.71 384 1091.98 384.272 1089.97 384.272H1081.95V398H1078.11V364.4H1089.92ZM1092.7 382.832L1102.02 398H1097.65L1088.58 382.832H1092.7ZM1108.45 374H1112V398H1108.45V374ZM1110.27 369.2C1109.54 369.2 1108.93 368.96 1108.45 368.48C1107.97 368 1107.73 367.408 1107.73 366.704C1107.73 365.968 1107.97 365.36 1108.45 364.88C1108.93 364.4 1109.54 364.16 1110.27 364.16C1110.94 364.16 1111.52 364.4 1112 364.88C1112.51 365.36 1112.77 365.968 1112.77 366.704C1112.77 367.408 1112.51 368 1112 368.48C1111.52 368.96 1110.94 369.2 1110.27 369.2ZM1122.07 390.656C1122.26 391.616 1122.61 392.416 1123.13 393.056C1123.64 393.664 1124.29 394.128 1125.09 394.448C1125.93 394.768 1126.89 394.928 1127.97 394.928C1129.67 394.928 1130.95 394.608 1131.81 393.968C1132.71 393.296 1133.16 392.464 1133.16 391.472C1133.16 390.64 1132.89 389.968 1132.34 389.456C1131.83 388.944 1131.14 388.528 1130.28 388.208C1129.41 387.856 1128.45 387.552 1127.4 387.296C1126.57 387.104 1125.67 386.88 1124.71 386.624C1123.75 386.336 1122.84 385.952 1121.97 385.472C1121.11 384.992 1120.41 384.368 1119.86 383.6C1119.32 382.832 1119.05 381.824 1119.05 380.576C1119.05 379.2 1119.41 378 1120.15 376.976C1120.92 375.92 1121.96 375.104 1123.27 374.528C1124.61 373.952 1126.15 373.664 1127.88 373.664C1129.86 373.664 1131.62 374.096 1133.16 374.96C1134.73 375.824 1135.81 377.168 1136.42 378.992L1133.06 380.144C1132.84 379.312 1132.42 378.672 1131.81 378.224C1131.24 377.776 1130.58 377.472 1129.85 377.312C1129.14 377.152 1128.44 377.072 1127.73 377.072C1126.29 377.072 1125.13 377.36 1124.23 377.936C1123.37 378.48 1122.93 379.312 1122.93 380.432C1122.93 381.04 1123.08 381.552 1123.37 381.968C1123.65 382.352 1124.05 382.672 1124.57 382.928C1125.08 383.184 1125.69 383.408 1126.39 383.6C1127.09 383.76 1127.86 383.952 1128.69 384.176C1129.62 384.4 1130.57 384.688 1131.53 385.04C1132.49 385.36 1133.38 385.792 1134.21 386.336C1135.05 386.848 1135.72 387.52 1136.23 388.352C1136.77 389.152 1137.05 390.16 1137.05 391.376C1137.05 392.784 1136.66 394.016 1135.89 395.072C1135.13 396.096 1134.05 396.896 1132.68 397.472C1131.33 398.048 1129.77 398.336 1127.97 398.336C1125.51 398.336 1123.46 397.792 1121.83 396.704C1120.23 395.584 1119.16 393.952 1118.61 391.808L1122.07 390.656ZM1142.88 363.44H1146.53V384.416H1148.74L1158.2 374H1163.28L1151.96 386L1163.33 398H1158.2L1148.74 387.536H1146.53V398H1142.88V363.44ZM1169.7 390.656C1169.89 391.616 1170.24 392.416 1170.75 393.056C1171.26 393.664 1171.92 394.128 1172.72 394.448C1173.55 394.768 1174.51 394.928 1175.6 394.928C1177.3 394.928 1178.58 394.608 1179.44 393.968C1180.34 393.296 1180.78 392.464 1180.78 391.472C1180.78 390.64 1180.51 389.968 1179.97 389.456C1179.46 388.944 1178.77 388.528 1177.9 388.208C1177.04 387.856 1176.08 387.552 1175.02 387.296C1174.19 387.104 1173.3 386.88 1172.34 386.624C1171.38 386.336 1170.46 385.952 1169.6 385.472C1168.74 384.992 1168.03 384.368 1167.49 383.6C1166.94 382.832 1166.67 381.824 1166.67 380.576C1166.67 379.2 1167.04 378 1167.78 376.976C1168.54 375.92 1169.58 375.104 1170.9 374.528C1172.24 373.952 1173.78 373.664 1175.5 373.664C1177.49 373.664 1179.25 374.096 1180.78 374.96C1182.35 375.824 1183.44 377.168 1184.05 378.992L1180.69 380.144C1180.46 379.312 1180.05 378.672 1179.44 378.224C1178.86 377.776 1178.21 377.472 1177.47 377.312C1176.77 377.152 1176.06 377.072 1175.36 377.072C1173.92 377.072 1172.75 377.36 1171.86 377.936C1170.99 378.48 1170.56 379.312 1170.56 380.432C1170.56 381.04 1170.7 381.552 1170.99 381.968C1171.28 382.352 1171.68 382.672 1172.19 382.928C1172.7 383.184 1173.31 383.408 1174.02 383.6C1174.72 383.76 1175.49 383.952 1176.32 384.176C1177.25 384.4 1178.19 384.688 1179.15 385.04C1180.11 385.36 1181.01 385.792 1181.84 386.336C1182.67 386.848 1183.34 387.52 1183.86 388.352C1184.4 389.152 1184.67 390.16 1184.67 391.376C1184.67 392.784 1184.29 394.016 1183.52 395.072C1182.75 396.096 1181.68 396.896 1180.3 397.472C1178.96 398.048 1177.39 398.336 1175.6 398.336C1173.14 398.336 1171.09 397.792 1169.46 396.704C1167.86 395.584 1166.78 393.952 1166.24 391.808L1169.7 390.656ZM1220.14 369.44C1219.5 368.8 1218.7 368.32 1217.74 368C1216.81 367.648 1215.75 367.472 1214.57 367.472C1212.36 367.472 1210.71 368.048 1209.63 369.2C1208.57 370.352 1208.04 371.808 1208.04 373.568C1208.04 374.848 1208.36 375.904 1209 376.736C1209.67 377.568 1210.68 378.192 1212.03 378.608C1213.4 379.024 1215.13 379.232 1217.21 379.232H1227.63V382.592H1217.26C1214.06 382.592 1211.61 383.056 1209.91 383.984C1208.25 384.88 1207.42 386.496 1207.42 388.832C1207.42 390.048 1207.66 391.12 1208.14 392.048C1208.62 392.976 1209.37 393.696 1210.39 394.208C1211.42 394.688 1212.75 394.928 1214.38 394.928C1216.84 394.928 1218.59 394.336 1219.61 393.152C1220.63 391.968 1221.15 390.16 1221.15 387.728V381.584H1224.84V387.728C1224.84 390.256 1224.43 392.304 1223.59 393.872C1222.76 395.408 1221.56 396.544 1219.99 397.28C1218.43 397.984 1216.55 398.336 1214.38 398.336C1211.98 398.336 1209.96 397.952 1208.33 397.184C1206.73 396.384 1205.53 395.296 1204.73 393.92C1203.93 392.512 1203.53 390.928 1203.53 389.168C1203.53 387.568 1203.83 386.224 1204.44 385.136C1205.05 384.016 1205.88 383.12 1206.94 382.448C1208.03 381.744 1209.26 381.248 1210.63 380.96V380.72C1209.26 380.464 1208.09 379.968 1207.13 379.232C1206.17 378.496 1205.43 377.616 1204.92 376.592C1204.41 375.536 1204.15 374.4 1204.15 373.184C1204.15 371.52 1204.54 370 1205.31 368.624C1206.11 367.248 1207.27 366.144 1208.81 365.312C1210.35 364.48 1212.22 364.064 1214.43 364.064C1216.25 364.064 1217.9 364.352 1219.37 364.928C1220.87 365.472 1222.14 366.256 1223.16 367.28L1220.14 369.44ZM1223.16 367.28L1220.14 369.44L1223.16 367.28ZM1219.32 379.232C1219.74 379.232 1220.11 379.152 1220.43 378.992C1220.75 378.8 1220.99 378.544 1221.15 378.224C1221.31 377.904 1221.39 377.536 1221.39 377.12V373.328H1224.89V379.232H1231.32V382.592H1224.89V390.272C1224.89 391.84 1225.31 392.992 1226.14 393.728C1226.97 394.464 1228.07 394.832 1229.45 394.832C1229.74 394.832 1230.03 394.816 1230.31 394.784C1230.63 394.752 1230.97 394.72 1231.32 394.688V397.808C1230.91 397.904 1230.47 397.984 1230.03 398.048C1229.61 398.112 1229.21 398.144 1228.83 398.144C1227.48 398.144 1226.22 397.872 1225.03 397.328C1223.88 396.784 1222.94 395.936 1222.2 394.784C1221.47 393.6 1221.1 392.096 1221.1 390.272V382.592H1217.5V379.232H1219.32Z" fill="#FFC9CC"/>
<g filter="url(#filter6_f_2016_20467)">
<path d="M913 275L1028 268V301L913 296.5V275Z" fill="url(#paint4_linear_2016_20467)" fill-opacity="0.5"/>
</g>
<path d="M915.368 274.8V296.4H913.448V274.8H915.368Z" fill="#F1512C"/>
<path d="M930.192 281.76C930.192 280.88 929.896 280.184 929.304 279.672C928.728 279.144 927.864 278.88 926.712 278.88H921.96V284.616H926.784C927.872 284.616 928.712 284.36 929.304 283.848C929.896 283.336 930.192 282.64 930.192 281.76ZM920.04 294V277.2H926.88C928.064 277.2 929.04 277.4 929.808 277.8C930.576 278.2 931.144 278.728 931.512 279.384C931.896 280.024 932.088 280.736 932.088 281.52C932.088 282.288 931.944 282.936 931.656 283.464C931.384 283.976 931.008 284.384 930.528 284.688C930.064 284.992 929.552 285.2 928.992 285.312V285.48C929.664 285.576 930.264 285.792 930.792 286.128C931.32 286.448 931.736 286.888 932.04 287.448C932.344 288.008 932.496 288.688 932.496 289.488C932.496 290.32 932.288 291.08 931.872 291.768C931.456 292.456 930.84 293 930.024 293.4C929.224 293.8 928.24 294 927.072 294H920.04ZM921.96 292.32H926.928C928.08 292.32 928.976 292.064 929.616 291.552C930.272 291.024 930.6 290.272 930.6 289.296C930.6 288.32 930.256 287.576 929.568 287.064C928.896 286.552 927.992 286.296 926.856 286.296H921.96V292.32ZM945.508 294H943.876L943.756 292.272C943.388 292.88 942.892 293.352 942.268 293.688C941.644 294.008 940.916 294.168 940.084 294.168C939.156 294.168 938.348 293.976 937.66 293.592C936.972 293.208 936.436 292.632 936.052 291.864C935.684 291.096 935.5 290.128 935.5 288.96V282H937.276V288.768C937.276 290 937.54 290.936 938.068 291.576C938.612 292.2 939.388 292.512 940.396 292.512C941.42 292.512 942.228 292.184 942.82 291.528C943.428 290.856 943.732 289.848 943.732 288.504V282H945.508V294ZM949.528 282H951.304V294H949.528V282ZM950.44 279.6C950.072 279.6 949.768 279.48 949.528 279.24C949.288 279 949.168 278.704 949.168 278.352C949.168 277.984 949.288 277.68 949.528 277.44C949.768 277.2 950.072 277.08 950.44 277.08C950.776 277.08 951.064 277.2 951.304 277.44C951.56 277.68 951.688 277.984 951.688 278.352C951.688 278.704 951.56 279 951.304 279.24C951.064 279.48 950.776 279.6 950.44 279.6ZM955.356 276.72H957.156V294H955.356V276.72ZM970.081 284.424L969.889 284.448V276.72H971.689V294H970.033L969.913 291.768C969.545 292.44 968.993 293.008 968.257 293.472C967.537 293.936 966.641 294.168 965.569 294.168C964.465 294.168 963.497 293.92 962.665 293.424C961.849 292.912 961.209 292.192 960.745 291.264C960.297 290.336 960.073 289.248 960.073 288C960.073 286.752 960.297 285.672 960.745 284.76C961.209 283.832 961.849 283.112 962.665 282.6C963.497 282.088 964.465 281.832 965.569 281.832C966.705 281.832 967.649 282.08 968.401 282.576C969.153 283.072 969.713 283.688 970.081 284.424ZM962.017 288C962.017 289.376 962.369 290.472 963.073 291.288C963.777 292.088 964.737 292.488 965.953 292.488C966.705 292.488 967.377 292.312 967.969 291.96C968.561 291.608 969.025 291.096 969.361 290.424C969.713 289.752 969.889 288.944 969.889 288C969.889 287.056 969.713 286.256 969.361 285.6C969.025 284.928 968.561 284.416 967.969 284.064C967.377 283.696 966.705 283.512 965.953 283.512C964.753 283.512 963.793 283.92 963.073 284.736C962.369 285.536 962.017 286.624 962.017 288ZM989.658 294.168C988.474 294.168 987.37 293.96 986.346 293.544C985.338 293.128 984.45 292.544 983.682 291.792C982.93 291.024 982.338 290.12 981.906 289.08C981.49 288.024 981.282 286.864 981.282 285.6C981.282 284.336 981.49 283.184 981.906 282.144C982.338 281.088 982.93 280.184 983.682 279.432C984.45 278.664 985.338 278.072 986.346 277.656C987.37 277.24 988.474 277.032 989.658 277.032C990.826 277.032 991.914 277.24 992.922 277.656C993.946 278.072 994.834 278.664 995.586 279.432C996.338 280.184 996.922 281.088 997.338 282.144C997.77 283.184 997.986 284.336 997.986 285.6C997.986 286.864 997.77 288.024 997.338 289.08C996.922 290.12 996.338 291.024 995.586 291.792C994.834 292.544 993.946 293.128 992.922 293.544C991.914 293.96 990.826 294.168 989.658 294.168ZM989.658 292.488C990.858 292.488 991.938 292.208 992.898 291.648C993.858 291.088 994.618 290.296 995.178 289.272C995.738 288.232 996.018 287.008 996.018 285.6C996.018 284.176 995.738 282.952 995.178 281.928C994.618 280.888 993.858 280.096 992.898 279.552C991.938 278.992 990.858 278.712 989.658 278.712C988.442 278.712 987.346 278.992 986.37 279.552C985.41 280.096 984.65 280.888 984.09 281.928C983.53 282.952 983.25 284.176 983.25 285.6C983.25 287.008 983.53 288.232 984.09 289.272C984.65 290.296 985.41 291.088 986.37 291.648C987.346 292.208 988.442 292.488 989.658 292.488ZM1000.85 282H1002.5L1002.6 283.704C1002.98 283.112 1003.49 282.656 1004.11 282.336C1004.74 282 1005.46 281.832 1006.3 281.832C1007.21 281.832 1008.01 282.032 1008.7 282.432C1009.38 282.816 1009.92 283.4 1010.3 284.184C1010.69 284.952 1010.88 285.92 1010.88 287.088V294H1009.08V287.304C1009.08 286.056 1008.81 285.112 1008.26 284.472C1007.74 283.816 1006.97 283.488 1005.96 283.488C1004.92 283.488 1004.1 283.832 1003.51 284.52C1002.94 285.208 1002.65 286.224 1002.65 287.568V294H1000.85V282ZM1027.75 278.88H1026.95L1021.41 294H1019.47L1025.61 277.2H1029.07L1035.19 294H1033.24L1027.75 278.88ZM1022.47 287.904H1032.26V289.584H1022.47V287.904ZM1038.83 291.576L1039.02 291.552V298.8H1037.22V282H1038.88L1039 284.232C1039.37 283.56 1039.91 282.992 1040.63 282.528C1041.35 282.064 1042.26 281.832 1043.34 281.832C1044.38 281.832 1045.32 282.088 1046.15 282.6C1046.98 283.096 1047.64 283.808 1048.12 284.736C1048.6 285.648 1048.84 286.736 1048.84 288C1048.84 289.248 1048.61 290.336 1048.14 291.264C1047.7 292.176 1047.06 292.888 1046.22 293.4C1045.41 293.912 1044.45 294.168 1043.34 294.168C1042.19 294.168 1041.24 293.92 1040.49 293.424C1039.74 292.928 1039.18 292.312 1038.83 291.576ZM1046.9 288C1046.9 286.624 1046.54 285.536 1045.82 284.736C1045.11 283.92 1044.16 283.512 1042.96 283.512C1042.21 283.512 1041.53 283.688 1040.92 284.04C1040.33 284.392 1039.86 284.904 1039.53 285.576C1039.19 286.248 1039.02 287.056 1039.02 288C1039.02 288.928 1039.19 289.728 1039.53 290.4C1039.86 291.072 1040.33 291.592 1040.92 291.96C1041.53 292.312 1042.21 292.488 1042.96 292.488C1044.16 292.488 1045.11 292.088 1045.82 291.288C1046.54 290.472 1046.9 289.376 1046.9 288ZM1052.55 282V278.64H1054.35V282H1057.54V283.68H1054.35V290.136C1054.35 290.872 1054.5 291.408 1054.8 291.744C1055.12 292.08 1055.52 292.28 1056 292.344C1056.5 292.408 1057.01 292.408 1057.54 292.344V293.904C1056.91 294.048 1056.3 294.088 1055.69 294.024C1055.1 293.96 1054.56 293.784 1054.08 293.496C1053.62 293.192 1053.24 292.768 1052.95 292.224C1052.68 291.68 1052.55 290.984 1052.55 290.136V283.68H1050.75V282H1052.55ZM1065.4 294.168C1064.26 294.168 1063.25 293.92 1062.35 293.424C1061.46 292.928 1060.75 292.224 1060.24 291.312C1059.73 290.384 1059.47 289.288 1059.47 288.024C1059.47 286.744 1059.73 285.64 1060.24 284.712C1060.77 283.784 1061.48 283.072 1062.38 282.576C1063.29 282.08 1064.31 281.832 1065.45 281.832C1066.58 281.832 1067.6 282.08 1068.5 282.576C1069.41 283.072 1070.12 283.784 1070.63 284.712C1071.16 285.624 1071.42 286.712 1071.42 287.976C1071.42 289.256 1071.16 290.36 1070.63 291.288C1070.1 292.216 1069.38 292.928 1068.47 293.424C1067.56 293.92 1066.54 294.168 1065.4 294.168ZM1065.38 292.464C1066.08 292.464 1066.74 292.312 1067.37 292.008C1067.99 291.688 1068.5 291.2 1068.88 290.544C1069.28 289.872 1069.48 289.024 1069.48 288C1069.48 286.96 1069.29 286.112 1068.9 285.456C1068.52 284.8 1068.02 284.32 1067.39 284.016C1066.78 283.696 1066.13 283.536 1065.42 283.536C1064.72 283.536 1064.06 283.696 1063.46 284.016C1062.85 284.32 1062.35 284.808 1061.97 285.48C1061.6 286.136 1061.42 286.976 1061.42 288C1061.42 289.04 1061.6 289.888 1061.97 290.544C1062.34 291.2 1062.82 291.688 1063.41 292.008C1064.02 292.312 1064.67 292.464 1065.38 292.464ZM1075.36 290.328C1075.45 290.808 1075.63 291.208 1075.88 291.528C1076.14 291.832 1076.47 292.064 1076.87 292.224C1077.28 292.384 1077.76 292.464 1078.31 292.464C1079.16 292.464 1079.8 292.304 1080.23 291.984C1080.68 291.648 1080.9 291.232 1080.9 290.736C1080.9 290.32 1080.76 289.984 1080.49 289.728C1080.24 289.472 1079.89 289.264 1079.46 289.104C1079.03 288.928 1078.55 288.776 1078.02 288.648C1077.6 288.552 1077.16 288.44 1076.68 288.312C1076.2 288.168 1075.74 287.976 1075.31 287.736C1074.88 287.496 1074.52 287.184 1074.25 286.8C1073.98 286.416 1073.84 285.912 1073.84 285.288C1073.84 284.6 1074.03 284 1074.4 283.488C1074.78 282.96 1075.3 282.552 1075.96 282.264C1076.63 281.976 1077.4 281.832 1078.26 281.832C1079.25 281.832 1080.13 282.048 1080.9 282.48C1081.68 282.912 1082.23 283.584 1082.53 284.496L1080.85 285.072C1080.74 284.656 1080.53 284.336 1080.23 284.112C1079.94 283.888 1079.61 283.736 1079.24 283.656C1078.89 283.576 1078.54 283.536 1078.19 283.536C1077.47 283.536 1076.88 283.68 1076.44 283.968C1076 284.24 1075.79 284.656 1075.79 285.216C1075.79 285.52 1075.86 285.776 1076 285.984C1076.15 286.176 1076.35 286.336 1076.6 286.464C1076.86 286.592 1077.16 286.704 1077.52 286.8C1077.87 286.88 1078.25 286.976 1078.67 287.088C1079.13 287.2 1079.6 287.344 1080.08 287.52C1080.56 287.68 1081.01 287.896 1081.43 288.168C1081.84 288.424 1082.18 288.76 1082.44 289.176C1082.71 289.576 1082.84 290.08 1082.84 290.688C1082.84 291.392 1082.65 292.008 1082.27 292.536C1081.88 293.048 1081.35 293.448 1080.66 293.736C1079.99 294.024 1079.2 294.168 1078.31 294.168C1077.08 294.168 1076.05 293.896 1075.24 293.352C1074.44 292.792 1073.9 291.976 1073.63 290.904L1075.36 290.328Z" fill="url(#paint5_linear_2016_20467)"/>
<path opacity="0.5" d="M922.704 429.8H923.92L923.344 432.68H926.8L927.376 429.8H928.608L928.032 432.68H930.304V433.8H927.808L927.232 436.712H929.6V437.832H927.024L926.4 441H925.168L925.792 437.832H922.336L921.712 441H920.496L921.12 437.832H918.688V436.712H921.328L921.904 433.8H919.376V432.68H922.128L922.704 429.8ZM922.544 436.712H926L926.576 433.8H923.12L922.544 436.712ZM943.581 432.84C943.581 432.253 943.384 431.789 942.989 431.448C942.605 431.096 942.029 430.92 941.261 430.92H938.093V434.744H941.309C942.034 434.744 942.594 434.573 942.989 434.232C943.384 433.891 943.581 433.427 943.581 432.84ZM936.813 441V429.8H941.373C942.162 429.8 942.813 429.933 943.325 430.2C943.837 430.467 944.216 430.819 944.461 431.256C944.717 431.683 944.845 432.157 944.845 432.68C944.845 433.192 944.749 433.624 944.557 433.976C944.376 434.317 944.125 434.589 943.805 434.792C943.496 434.995 943.154 435.133 942.781 435.208V435.32C943.229 435.384 943.629 435.528 943.981 435.752C944.333 435.965 944.61 436.259 944.813 436.632C945.016 437.005 945.117 437.459 945.117 437.992C945.117 438.547 944.978 439.053 944.701 439.512C944.424 439.971 944.013 440.333 943.469 440.6C942.936 440.867 942.28 441 941.501 441H936.813ZM938.093 439.88H941.405C942.173 439.88 942.77 439.709 943.197 439.368C943.634 439.016 943.853 438.515 943.853 437.864C943.853 437.213 943.624 436.717 943.165 436.376C942.717 436.035 942.114 435.864 941.357 435.864H938.093V439.88ZM952.672 433H953.92L949.344 444.2H948.192L949.552 440.888L946.32 433H947.632L950.192 439.464L952.672 433ZM963.711 441H962.303L959.151 429.8H960.511L963.007 439.448L965.759 429.8H967.183L969.919 439.432L972.431 429.8H973.775L970.623 441H969.215L966.463 431.72L963.711 441ZM980.89 433H982.138L977.562 444.2H976.41L977.77 440.888L974.538 433H975.85L978.41 439.464L980.89 433ZM983.67 433H984.774L984.838 434.136C985.094 433.741 985.43 433.437 985.846 433.224C986.262 433 986.747 432.888 987.302 432.888C987.91 432.888 988.443 433.021 988.902 433.288C989.36 433.544 989.718 433.933 989.974 434.456C990.23 434.968 990.358 435.613 990.358 436.392V441H989.158V436.536C989.158 435.704 988.976 435.075 988.614 434.648C988.262 434.211 987.75 433.992 987.078 433.992C986.384 433.992 985.84 434.221 985.446 434.68C985.062 435.139 984.87 435.816 984.87 436.712V441H983.67V433ZM992.685 433H993.789L993.853 434.136C994.109 433.741 994.445 433.437 994.861 433.224C995.277 433 995.762 432.888 996.317 432.888C996.925 432.888 997.458 433.021 997.917 433.288C998.376 433.544 998.733 433.933 998.989 434.456C999.245 434.968 999.373 435.613 999.373 436.392V441H998.173V436.536C998.173 435.704 997.992 435.075 997.629 434.648C997.277 434.211 996.765 433.992 996.093 433.992C995.4 433.992 994.856 434.221 994.461 434.68C994.077 435.139 993.885 435.816 993.885 436.712V441H992.685V433ZM1005.64 435.4C1005.64 434.557 1005.78 433.789 1006.06 433.096C1006.33 432.392 1006.72 431.789 1007.23 431.288C1007.74 430.776 1008.32 430.381 1008.99 430.104C1009.66 429.827 1010.39 429.688 1011.18 429.688C1012.33 429.688 1013.34 429.955 1014.2 430.488C1015.08 431.021 1015.74 431.779 1016.19 432.76L1015.15 433.144C1014.9 432.621 1014.57 432.195 1014.17 431.864C1013.76 431.523 1013.31 431.267 1012.79 431.096C1012.28 430.925 1011.74 430.84 1011.18 430.84C1010.38 430.84 1009.66 431.021 1009.02 431.384C1008.38 431.747 1007.87 432.269 1007.5 432.952C1007.13 433.635 1006.95 434.451 1006.95 435.4C1006.95 436.339 1007.13 437.149 1007.5 437.832C1007.87 438.515 1008.38 439.043 1009.02 439.416C1009.66 439.779 1010.38 439.96 1011.18 439.96C1011.75 439.96 1012.3 439.869 1012.83 439.688C1013.35 439.507 1013.82 439.224 1014.23 438.84C1014.66 438.456 1015 437.976 1015.26 437.4L1016.3 437.784C1015.84 438.883 1015.17 439.715 1014.28 440.28C1013.4 440.835 1012.36 441.112 1011.18 441.112C1010.39 441.112 1009.66 440.973 1008.99 440.696C1008.32 440.419 1007.74 440.024 1007.23 439.512C1006.72 439 1006.33 438.397 1006.06 437.704C1005.78 437 1005.64 436.232 1005.64 435.4ZM1018.42 429.48H1019.62V434.088C1019.88 433.704 1020.22 433.411 1020.66 433.208C1021.1 432.995 1021.59 432.888 1022.13 432.888C1022.72 432.888 1023.24 433.021 1023.7 433.288C1024.16 433.555 1024.52 433.949 1024.77 434.472C1025.04 434.995 1025.17 435.645 1025.17 436.424V441H1023.89V436.568C1023.89 435.736 1023.72 435.101 1023.36 434.664C1023.01 434.216 1022.5 433.992 1021.83 433.992C1021.13 433.992 1020.59 434.227 1020.2 434.696C1019.81 435.165 1019.62 435.848 1019.62 436.744V441H1018.42V429.48ZM1027.74 433H1028.92V441H1027.74V433ZM1028.35 431.4C1028.1 431.4 1027.9 431.32 1027.74 431.16C1027.58 431 1027.5 430.803 1027.5 430.568C1027.5 430.323 1027.58 430.12 1027.74 429.96C1027.9 429.8 1028.1 429.72 1028.35 429.72C1028.57 429.72 1028.76 429.8 1028.92 429.96C1029.09 430.12 1029.18 430.323 1029.18 430.568C1029.18 430.803 1029.09 431 1028.92 431.16C1028.76 431.32 1028.57 431.4 1028.35 431.4ZM1031.62 429.48H1032.82V441H1031.62V429.48ZM1035.26 429.48H1036.46V441H1035.26V429.48ZM1042.84 429.8H1051.24V430.92H1047.69V441H1046.41V430.92H1042.84V429.8ZM1056.51 441.112C1055.77 441.112 1055.1 440.931 1054.51 440.568C1053.94 440.205 1053.48 439.709 1053.15 439.08C1052.82 438.451 1052.66 437.731 1052.66 436.92C1052.66 436.141 1052.82 435.448 1053.15 434.84C1053.48 434.232 1053.94 433.757 1054.51 433.416C1055.09 433.064 1055.75 432.888 1056.48 432.888C1057.21 432.888 1057.85 433.048 1058.42 433.368C1058.99 433.688 1059.44 434.131 1059.76 434.696C1060.08 435.261 1060.23 435.907 1060.21 436.632C1060.21 436.749 1060.2 436.872 1060.19 437C1060.18 437.128 1060.17 437.267 1060.16 437.416H1053.97C1053.99 437.917 1054.11 438.36 1054.34 438.744C1054.56 439.128 1054.86 439.432 1055.22 439.656C1055.59 439.869 1056.01 439.976 1056.48 439.976C1057.1 439.976 1057.62 439.859 1058.05 439.624C1058.49 439.389 1058.8 439.053 1058.99 438.616L1060.03 439.032C1059.71 439.704 1059.25 440.221 1058.64 440.584C1058.03 440.936 1057.32 441.112 1056.51 441.112ZM1058.9 436.376C1058.91 435.917 1058.81 435.512 1058.59 435.16C1058.39 434.808 1058.1 434.531 1057.73 434.328C1057.36 434.125 1056.92 434.024 1056.43 434.024C1056.01 434.024 1055.62 434.125 1055.27 434.328C1054.91 434.531 1054.62 434.813 1054.39 435.176C1054.16 435.528 1054.03 435.928 1053.99 436.376H1058.9ZM1067.19 441L1067.1 439.56C1066.87 440.051 1066.54 440.435 1066.11 440.712C1065.67 440.979 1065.11 441.112 1064.44 441.112C1063.87 441.112 1063.37 441.021 1062.97 440.84C1062.56 440.659 1062.25 440.403 1062.03 440.072C1061.81 439.731 1061.71 439.331 1061.71 438.872C1061.71 438.2 1061.96 437.651 1062.46 437.224C1062.96 436.787 1063.68 436.52 1064.63 436.424L1067.1 436.152V435.512C1067.1 435.064 1066.93 434.707 1066.6 434.44C1066.27 434.163 1065.82 434.024 1065.26 434.024C1064.7 434.024 1064.24 434.152 1063.87 434.408C1063.5 434.664 1063.25 435.032 1063.11 435.512L1062.03 435.128C1062.24 434.424 1062.63 433.875 1063.19 433.48C1063.77 433.085 1064.47 432.888 1065.29 432.888C1066.24 432.888 1066.97 433.133 1067.5 433.624C1068.03 434.104 1068.3 434.76 1068.3 435.592V441H1067.19ZM1067.1 437.176L1064.62 437.464C1064.08 437.528 1063.68 437.677 1063.4 437.912C1063.12 438.136 1062.99 438.435 1062.99 438.808C1062.99 439.181 1063.12 439.48 1063.39 439.704C1063.66 439.928 1064.06 440.04 1064.57 440.04C1065.16 440.04 1065.64 439.923 1066.01 439.688C1066.38 439.453 1066.65 439.139 1066.83 438.744C1067.01 438.339 1067.1 437.901 1067.1 437.432V437.176ZM1070.64 433H1071.74L1071.82 434.152C1072.06 433.768 1072.37 433.464 1072.77 433.24C1073.17 433.005 1073.65 432.888 1074.21 432.888C1074.77 432.888 1075.28 433.027 1075.74 433.304C1076.21 433.571 1076.57 433.971 1076.83 434.504C1077.08 433.96 1077.45 433.555 1077.95 433.288C1078.45 433.021 1079.01 432.888 1079.61 432.888C1080.21 432.888 1080.74 433.021 1081.2 433.288C1081.66 433.544 1082.01 433.933 1082.27 434.456C1082.53 434.968 1082.65 435.613 1082.65 436.392V441H1081.45V436.536C1081.45 435.704 1081.27 435.075 1080.91 434.648C1080.56 434.211 1080.05 433.992 1079.39 433.992C1078.72 433.992 1078.18 434.227 1077.79 434.696C1077.4 435.155 1077.2 435.837 1077.2 436.744V441H1076V436.536C1076 435.704 1075.83 435.075 1075.49 434.648C1075.14 434.211 1074.64 433.992 1073.98 433.992C1073.31 433.992 1072.78 434.227 1072.4 434.696C1072.02 435.155 1071.84 435.837 1071.84 436.744V441H1070.64V433Z" fill="#F8F2E2"/>
</g>
<defs>
<filter id="filter0_fn_2016_20467" x="256.389" y="-385" width="1847.61" height="1450.96" filterUnits="userSpaceOnUse" color-interpolation-filters="sRGB">
<feFlood flood-opacity="0" result="BackgroundImageFix"/>
<feBlend mode="normal" in="SourceGraphic" in2="BackgroundImageFix" result="shape"/>
<feGaussianBlur stdDeviation="256" result="effect1_foregroundBlur_2016_20467"/>
<feTurbulence type="fractalNoise" baseFrequency="1 1" stitchTiles="stitch" numOctaves="3" result="noise" seed="3882" />
<feColorMatrix in="noise" type="luminanceToAlpha" result="alphaNoise" />
<feComponentTransfer in="alphaNoise" result="coloredNoise1">
<feFuncA type="discrete" tableValues="1 1 1 1 1 1 1 1 1 1 1 1 1 1 1 1 1 1 1 1 1 1 1 1 1 1 1 1 1 1 1 1 1 1 1 1 1 1 1 1 1 1 1 1 1 1 1 1 1 1 1 0 0 0 0 0 0 0 0 0 0 0 0 0 0 0 0 0 0 0 0 0 0 0 0 0 0 0 0 0 0 0 0 0 0 0 0 0 0 0 0 0 0 0 0 0 0 0 0 0 "/>
</feComponentTransfer>
<feComposite operator="in" in2="effect1_foregroundBlur_2016_20467" in="coloredNoise1" result="noise1Clipped" />
<feFlood flood-color="rgba(0, 0, 0, 0.25)" result="color1Flood" />
<feComposite operator="in" in2="noise1Clipped" in="color1Flood" result="color1" />
<feMerge result="effect2_noise_2016_20467">
<feMergeNode in="effect1_foregroundBlur_2016_20467" />
<feMergeNode in="color1" />
</feMerge>
</filter>
<filter id="filter1_fn_2016_20467" x="-256" y="-256" width="2017.5" height="1042" filterUnits="userSpaceOnUse" color-interpolation-filters="sRGB">
<feFlood flood-opacity="0" result="BackgroundImageFix"/>
<feBlend mode="normal" in="SourceGraphic" in2="BackgroundImageFix" result="shape"/>
<feGaussianBlur stdDeviation="128" result="effect1_foregroundBlur_2016_20467"/>
<feTurbulence type="fractalNoise" baseFrequency="0.25 0.25" stitchTiles="stitch" numOctaves="3" result="noise" seed="6342" />
<feColorMatrix in="noise" type="luminanceToAlpha" result="alphaNoise" />
<feComponentTransfer in="alphaNoise" result="coloredNoise1">
<feFuncA type="discrete" tableValues="1 1 1 1 1 1 1 1 1 1 1 1 1 1 1 1 1 1 1 1 1 1 1 1 1 1 1 1 1 1 1 1 1 1 1 1 1 1 1 1 1 1 1 1 1 1 1 1 1 1 1 0 0 0 0 0 0 0 0 0 0 0 0 0 0 0 0 0 0 0 0 0 0 0 0 0 0 0 0 0 0 0 0 0 0 0 0 0 0 0 0 0 0 0 0 0 0 0 0 0 "/>
</feComponentTransfer>
<feComposite operator="in" in2="effect1_foregroundBlur_2016_20467" in="coloredNoise1" result="noise1Clipped" />
<feFlood flood-color="rgba(0, 0, 0, 0.25)" result="color1Flood" />
<feComposite operator="in" in2="noise1Clipped" in="color1Flood" result="color1" />
<feMerge result="effect2_noise_2016_20467">
<feMergeNode in="effect1_foregroundBlur_2016_20467" />
<feMergeNode in="color1" />
</feMerge>
</filter>
<filter id="filter2_fn_2016_20467" x="-256" y="-256" width="1450" height="1042" filterUnits="userSpaceOnUse" color-interpolation-filters="sRGB">
<feFlood flood-opacity="0" result="BackgroundImageFix"/>
<feBlend mode="normal" in="SourceGraphic" in2="BackgroundImageFix" result="shape"/>
<feGaussianBlur stdDeviation="128" result="effect1_foregroundBlur_2016_20467"/>
<feTurbulence type="fractalNoise" baseFrequency="1 1" stitchTiles="stitch" numOctaves="3" result="noise" seed="6342" />
<feColorMatrix in="noise" type="luminanceToAlpha" result="alphaNoise" />
<feComponentTransfer in="alphaNoise" result="coloredNoise1">
<feFuncA type="discrete" tableValues="1 1 1 1 1 1 1 1 1 1 1 1 1 1 1 1 1 1 1 1 1 1 1 1 1 1 1 1 1 1 1 1 1 1 1 1 1 1 1 1 1 1 1 1 1 1 1 1 1 1 1 0 0 0 0 0 0 0 0 0 0 0 0 0 0 0 0 0 0 0 0 0 0 0 0 0 0 0 0 0 0 0 0 0 0 0 0 0 0 0 0 0 0 0 0 0 0 0 0 0 "/>
</feComponentTransfer>
<feComposite operator="in" in2="effect1_foregroundBlur_2016_20467" in="coloredNoise1" result="noise1Clipped" />
<feFlood flood-color="rgba(0, 0, 0, 0.25)" result="color1Flood" />
<feComposite operator="in" in2="noise1Clipped" in="color1Flood" result="color1" />
<feMerge result="effect2_noise_2016_20467">
<feMergeNode in="effect1_foregroundBlur_2016_20467" />
<feMergeNode in="color1" />
</feMerge>
</filter>
<filter id="filter3_f_2016_20467" x="-32" y="-32" width="250" height="564" filterUnits="userSpaceOnUse" color-interpolation-filters="sRGB">
<feFlood flood-opacity="0" result="BackgroundImageFix"/>
<feBlend mode="normal" in="SourceGraphic" in2="BackgroundImageFix" result="shape"/>
<feGaussianBlur stdDeviation="16" result="effect1_foregroundBlur_2016_20467"/>
</filter>
<filter id="filter4_fn_2016_20467" x="-16" y="-16" width="153" height="532" filterUnits="userSpaceOnUse" color-interpolation-filters="sRGB">
<feFlood flood-opacity="0" result="BackgroundImageFix"/>
<feBlend mode="normal" in="SourceGraphic" in2="BackgroundImageFix" result="shape"/>
<feGaussianBlur stdDeviation="8" result="effect1_foregroundBlur_2016_20467"/>
<feTurbulence type="fractalNoise" baseFrequency="2 2" stitchTiles="stitch" numOctaves="3" result="noise" seed="1955" />
<feColorMatrix in="noise" type="luminanceToAlpha" result="alphaNoise" />
<feComponentTransfer in="alphaNoise" result="coloredNoise1">
<feFuncA type="discrete" tableValues="1 1 1 1 1 1 1 1 1 1 1 1 1 1 1 1 1 1 1 1 1 1 1 1 1 1 1 1 1 1 1 1 1 1 1 1 1 1 1 1 1 1 1 1 1 1 1 1 1 1 1 0 0 0 0 0 0 0 0 0 0 0 0 0 0 0 0 0 0 0 0 0 0 0 0 0 0 0 0 0 0 0 0 0 0 0 0 0 0 0 0 0 0 0 0 0 0 0 0 0 "/>
</feComponentTransfer>
<feComposite operator="in" in2="effect1_foregroundBlur_2016_20467" in="coloredNoise1" result="noise1Clipped" />
<feFlood flood-color="rgba(0, 0, 0, 0.25)" result="color1Flood" />
<feComposite operator="in" in2="noise1Clipped" in="color1Flood" result="color1" />
<feMerge result="effect2_noise_2016_20467">
<feMergeNode in="effect1_foregroundBlur_2016_20467" />
<feMergeNode in="color1" />
</feMerge>
</filter>
<filter id="filter5_fn_2016_20467" x="-32" y="-32" width="117" height="564" filterUnits="userSpaceOnUse" color-interpolation-filters="sRGB">
<feFlood flood-opacity="0" result="BackgroundImageFix"/>
<feBlend mode="normal" in="SourceGraphic" in2="BackgroundImageFix" result="shape"/>
<feGaussianBlur stdDeviation="16" result="effect1_foregroundBlur_2016_20467"/>
<feTurbulence type="fractalNoise" baseFrequency="2 2" stitchTiles="stitch" numOctaves="3" result="noise" seed="1955" />
<feColorMatrix in="noise" type="luminanceToAlpha" result="alphaNoise" />
<feComponentTransfer in="alphaNoise" result="coloredNoise1">
<feFuncA type="discrete" tableValues="1 1 1 1 1 1 1 1 1 1 1 1 1 1 1 1 1 1 1 1 1 1 1 1 1 1 1 1 1 1 1 1 1 1 1 1 1 1 1 1 1 1 1 1 1 1 1 1 1 1 1 0 0 0 0 0 0 0 0 0 0 0 0 0 0 0 0 0 0 0 0 0 0 0 0 0 0 0 0 0 0 0 0 0 0 0 0 0 0 0 0 0 0 0 0 0 0 0 0 0 "/>
</feComponentTransfer>
<feComposite operator="in" in2="effect1_foregroundBlur_2016_20467" in="coloredNoise1" result="noise1Clipped" />
<feFlood flood-color="rgba(0, 0, 0, 0.25)" result="color1Flood" />
<feComposite operator="in" in2="noise1Clipped" in="color1Flood" result="color1" />
<feMerge result="effect2_noise_2016_20467">
<feMergeNode in="effect1_foregroundBlur_2016_20467" />
<feMergeNode in="color1" />
</feMerge>
</filter>
<filter id="filter6_f_2016_20467" x="888" y="243" width="165" height="83" filterUnits="userSpaceOnUse" color-interpolation-filters="sRGB">
<feFlood flood-opacity="0" result="BackgroundImageFix"/>
<feBlend mode="normal" in="SourceGraphic" in2="BackgroundImageFix" result="shape"/>
<feGaussianBlur stdDeviation="12.5" result="effect1_foregroundBlur_2016_20467"/>
</filter>
<linearGradient id="paint0_linear_2016_20467" x1="0" y1="250" x2="175.184" y2="250" gradientUnits="userSpaceOnUse">
<stop stop-color="#F7A509"/>
<stop offset="0.509615" stop-color="#F5801C" stop-opacity="0.5"/>
<stop offset="1" stop-color="#F5801C" stop-opacity="0"/>
</linearGradient>
<linearGradient id="paint1_linear_2016_20467" x1="0" y1="250" x2="113.964" y2="250" gradientUnits="userSpaceOnUse">
<stop stop-color="#F7A509"/>
<stop offset="0.509615" stop-color="#F5801C" stop-opacity="0.5"/>
<stop offset="1" stop-color="#F5801C" stop-opacity="0"/>
</linearGradient>
<linearGradient id="paint2_linear_2016_20467" x1="0" y1="250" x2="49.9181" y2="250" gradientUnits="userSpaceOnUse">
<stop stop-color="#F7A509"/>
<stop offset="0.509615" stop-color="#F5801C" stop-opacity="0.5"/>
<stop offset="1" stop-color="#F5801C" stop-opacity="0"/>
</linearGradient>
<linearGradient id="paint3_linear_2016_20467" x1="0" y1="26" x2="219" y2="26" gradientUnits="userSpaceOnUse">
<stop stop-color="#F1512C"/>
<stop offset="1" stop-color="#F4A105"/>
</linearGradient>
<linearGradient id="paint4_linear_2016_20467" x1="913" y1="283.49" x2="1028" y2="283.49" gradientUnits="userSpaceOnUse">
<stop stop-color="#F1512C"/>
<stop offset="0.519231" stop-color="#F37B18" stop-opacity="0.480769"/>
<stop offset="1" stop-opacity="0"/>
</linearGradient>
<linearGradient id="paint5_linear_2016_20467" x1="918" y1="286" x2="1081.5" y2="286" gradientUnits="userSpaceOnUse">
<stop offset="0.0673077" stop-color="#FF623E"/>
<stop offset="1" stop-color="#BE9A92"/>
</linearGradient>
<clipPath id="clip0_2016_20467">
<rect width="1500" height="500" fill="white"/>
</clipPath>
</defs>
</svg>
