<svg width="1668" height="1309" viewBox="0 0 1668 1309" fill="none" xmlns="http://www.w3.org/2000/svg">
<path d="M274 408.754C274 420.536 264.449 430.087 252.667 430.087V430.087C158.41 430.087 82 353.677 82 259.42V259.42C82 247.638 91.5513 238.087 103.333 238.087L226 238.087C252.51 238.087 274 259.577 274 286.087L274 408.754Z" fill="url(#paint0_linear_2016_20447)"/>
<path d="M295.639 327C295.639 340.255 306.467 351.216 319.513 348.872C337.709 345.603 355.127 338.614 370.641 328.248C392.842 313.414 410.145 292.33 420.363 267.662C430.581 242.994 433.254 215.85 428.045 189.663C422.836 163.475 409.978 139.421 391.098 120.541C372.218 101.661 348.164 88.803 321.976 83.594C295.789 78.385 268.645 81.0584 243.977 91.2763C219.309 101.494 198.225 118.797 183.391 140.998C173.025 156.511 166.036 173.929 162.767 192.126C160.423 205.172 171.384 216 184.639 216L242.009 216C252.988 216 261.477 206.379 267.577 197.25V197.25C271.285 191.699 276.556 187.374 282.723 184.819C288.89 182.265 295.676 181.596 302.223 182.899C308.77 184.201 314.784 187.415 319.504 192.135C324.224 196.855 327.438 202.869 328.74 209.416C330.043 215.963 329.374 222.749 326.82 228.916C324.265 235.083 319.94 240.354 314.389 244.062V244.062C305.26 250.162 295.639 258.651 295.639 269.63L295.639 327Z" fill="#F8F2E2"/>
<path d="M696.48 201.336C690.144 189.624 682.176 181.272 672.576 176.28C662.976 171.096 652.608 168.504 641.472 168.504C629.376 168.504 618.528 171.48 608.928 177.432C599.328 183.384 591.648 191.64 585.888 202.2C580.32 212.568 577.536 224.568 577.536 238.2C577.536 252.024 580.224 264.216 585.6 274.776C591.168 285.144 598.752 293.304 608.352 299.256C618.144 305.016 629.28 307.896 641.76 307.896C650.016 307.896 657.696 306.456 664.8 303.576C672.096 300.696 678.432 296.76 683.808 291.768C689.376 286.776 693.888 280.92 697.344 274.2V257.496H642.336V226.392H735.36V279.096C730.752 290.232 723.936 300.6 714.912 310.2C705.888 319.608 695.04 327.096 682.368 332.664C669.888 338.232 655.968 341.016 640.608 341.016C625.824 341.016 612.192 338.52 599.712 333.528C587.424 328.536 576.576 321.528 567.168 312.504C557.952 303.288 550.752 292.44 545.568 279.96C540.384 267.288 537.792 253.368 537.792 238.2C537.792 223.224 540.384 209.496 545.568 197.016C550.752 184.344 557.952 173.4 567.168 164.184C576.384 154.968 587.232 147.864 599.712 142.872C612.192 137.88 625.728 135.384 640.32 135.384C653.76 135.384 666.528 137.592 678.624 142.008C690.72 146.232 701.376 152.472 710.592 160.728C719.808 168.792 726.912 178.68 731.904 190.392L696.48 201.336ZM891.101 339H857.405L854.813 324.024C850.205 329.4 844.541 333.624 837.821 336.696C831.293 339.576 824.285 341.016 816.797 341.016C805.661 341.016 796.061 338.616 787.997 333.816C779.933 329.016 773.693 322.104 769.277 313.08C764.861 303.864 762.653 292.536 762.653 279.096V195H799.805V274.488C799.805 285.432 801.917 293.784 806.141 299.544C810.557 305.112 817.277 307.896 826.301 307.896C835.133 307.896 841.949 305.016 846.749 299.256C851.741 293.496 854.237 285.144 854.237 274.2V195H891.101V339ZM1011.06 339L1008.18 321.432C1003.38 327.384 997.907 332.088 991.763 335.544C985.811 339 977.747 340.728 967.571 340.728C957.971 340.728 949.523 339.096 942.227 335.832C935.123 332.376 929.555 327.672 925.523 321.72C921.491 315.576 919.475 308.376 919.475 300.12C919.475 288.024 923.795 278.04 932.435 270.168C941.267 262.104 954.515 257.016 972.179 254.904L1008.18 250.872V240.792C1008.18 236.76 1006.36 233.016 1002.71 229.56C999.059 226.104 993.299 224.376 985.427 224.376C978.515 224.376 972.467 226.104 967.283 229.56C962.291 232.824 958.931 237.816 957.203 244.536L925.523 233.016C929.363 220.152 936.659 210.264 947.411 203.352C958.163 196.44 971.411 192.984 987.155 192.984C1006.36 192.984 1020.76 197.784 1030.36 207.384C1040.15 216.792 1045.04 229.272 1045.04 244.824V339H1011.06ZM1008.18 276.504L977.075 280.536C970.739 281.304 965.939 283.224 962.675 286.296C959.411 289.176 957.779 292.728 957.779 296.952C957.779 300.984 959.411 304.44 962.675 307.32C965.939 310.008 970.547 311.352 976.499 311.352C983.219 311.352 988.883 310.104 993.491 307.608C998.291 305.112 1001.94 301.464 1004.44 296.664C1006.93 291.864 1008.18 285.912 1008.18 278.808V276.504ZM1078.82 195H1112.23L1114.82 213.432C1118.86 208.44 1123.37 204.408 1128.36 201.336C1133.54 198.072 1139.21 195.864 1145.35 194.712C1151.5 193.368 1157.93 193.464 1164.65 195V229.56C1159.46 227.832 1153.99 227.352 1148.23 228.12C1142.66 228.888 1137.38 230.904 1132.39 234.168C1127.59 237.432 1123.56 242.136 1120.3 248.28C1117.22 254.232 1115.69 261.816 1115.69 271.032V339H1078.82V195ZM1193.13 195H1229.99V339H1193.13V195ZM1211.85 176.568C1204.94 176.568 1199.27 174.456 1194.86 170.232C1190.44 165.816 1188.23 160.44 1188.23 154.104C1188.23 147.768 1190.44 142.488 1194.86 138.264C1199.27 133.848 1204.94 131.64 1211.85 131.64C1218.38 131.64 1223.85 133.848 1228.26 138.264C1232.87 142.488 1235.18 147.768 1235.18 154.104C1235.18 160.44 1232.87 165.816 1228.26 170.232C1223.85 174.456 1218.38 176.568 1211.85 176.568ZM1280.72 195V154.68H1318.16V195H1349.84V227.544H1318.16V286.008C1318.16 293.496 1319.7 298.776 1322.77 301.848C1326.04 304.92 1330.07 306.552 1334.87 306.744C1339.86 306.936 1344.85 306.648 1349.84 305.88V337.56C1341.01 339.48 1332.37 340.056 1323.92 339.288C1315.67 338.52 1308.28 336.312 1301.75 332.664C1295.22 328.824 1290.04 323.064 1286.2 315.384C1282.55 307.704 1280.72 297.912 1280.72 286.008V227.544H1260.28V195H1280.72ZM1441.48 341.016C1427.47 341.016 1414.99 338.04 1404.04 332.088C1393.1 325.944 1384.46 317.4 1378.12 306.456C1371.98 295.32 1368.91 282.264 1368.91 267.288C1368.91 252.12 1372.07 238.968 1378.41 227.832C1384.94 216.696 1393.77 208.152 1404.91 202.2C1416.04 196.056 1428.52 192.984 1442.35 192.984C1456.17 192.984 1468.65 196.056 1479.79 202.2C1490.92 208.152 1499.75 216.696 1506.28 227.832C1512.81 238.776 1516.07 251.736 1516.07 266.712C1516.07 281.88 1512.71 295.032 1505.99 306.168C1499.47 317.304 1490.54 325.944 1479.21 332.088C1468.07 338.04 1455.5 341.016 1441.48 341.016ZM1441.19 307.896C1447.15 307.896 1452.81 306.456 1458.19 303.576C1463.56 300.504 1467.98 295.992 1471.43 290.04C1474.89 283.896 1476.62 276.12 1476.62 266.712C1476.62 257.688 1474.99 250.2 1471.72 244.248C1468.46 238.104 1464.14 233.592 1458.76 230.712C1453.58 227.64 1447.91 226.104 1441.77 226.104C1435.82 226.104 1430.25 227.64 1425.07 230.712C1420.07 233.592 1416.04 238.104 1412.97 244.248C1410.09 250.2 1408.65 257.88 1408.65 267.288C1408.65 276.312 1410.09 283.896 1412.97 290.04C1415.85 295.992 1419.79 300.504 1424.78 303.576C1429.77 306.456 1435.24 307.896 1441.19 307.896ZM1570.21 292.056C1571.37 296.856 1573.29 300.504 1575.97 303C1578.85 305.496 1582.02 307.32 1585.48 308.472C1589.13 309.432 1592.77 309.912 1596.42 309.912C1603.14 309.912 1608.42 308.664 1612.26 306.168C1616.1 303.48 1618.02 300.12 1618.02 296.088C1618.02 292.632 1616.68 289.944 1613.99 288.024C1611.3 285.912 1607.85 284.376 1603.62 283.416C1599.4 282.264 1595.08 281.112 1590.66 279.96C1585.48 278.616 1579.91 277.176 1573.96 275.64C1568.2 273.912 1562.73 271.512 1557.54 268.44C1552.36 265.368 1548.04 261.432 1544.58 256.632C1541.13 251.64 1539.4 245.4 1539.4 237.912C1539.4 229.08 1541.8 221.304 1546.6 214.584C1551.59 207.864 1558.41 202.584 1567.05 198.744C1575.88 194.904 1586.05 192.984 1597.57 192.984C1611.21 192.984 1622.73 195.864 1632.13 201.624C1641.54 207.384 1648.36 215.64 1652.58 226.392L1620.04 235.608C1619.08 232.92 1617.45 230.712 1615.14 228.984C1612.84 227.256 1610.05 226.008 1606.79 225.24C1603.72 224.472 1600.55 224.088 1597.29 224.088C1591.72 224.088 1587.11 225.24 1583.46 227.544C1579.81 229.656 1577.99 232.632 1577.99 236.472C1577.99 238.776 1578.66 240.696 1580.01 242.232C1581.35 243.576 1583.17 244.728 1585.48 245.688C1587.97 246.648 1590.76 247.512 1593.83 248.28C1597.09 249.048 1600.65 249.912 1604.49 250.872C1610.44 252.408 1616.39 254.232 1622.34 256.344C1628.49 258.264 1634.05 260.76 1639.05 263.832C1644.23 266.904 1648.36 271.032 1651.43 276.216C1654.5 281.4 1656.23 287.928 1656.61 295.8C1656.61 304.248 1654.21 311.928 1649.41 318.84C1644.61 325.56 1637.7 330.936 1628.68 334.968C1619.65 339 1608.71 341.016 1595.85 341.016C1580.87 341.016 1568.1 337.848 1557.54 331.512C1547.17 325.176 1540.36 315.288 1537.09 301.848L1570.21 292.056Z" fill="#F8F2E2"/>
<rect x="82" y="1293" width="1500" height="16" fill="url(#paint1_linear_2016_20447)"/>
<defs>
<linearGradient id="paint0_linear_2016_20447" x1="178" y1="238.087" x2="178" y2="430.087" gradientUnits="userSpaceOnUse">
<stop stop-color="#F4A105"/>
<stop offset="0.5" stop-color="#F1512C"/>
<stop offset="1" stop-color="#E72D3A"/>
</linearGradient>
<linearGradient id="paint1_linear_2016_20447" x1="82" y1="1301" x2="1582" y2="1301" gradientUnits="userSpaceOnUse">
<stop stop-color="#A6203B"/>
<stop offset="0.5" stop-color="#F13D3C"/>
<stop offset="1" stop-color="#FED54C"/>
</linearGradient>
</defs>
</svg>
