<svg width="512" height="512" viewBox="0 0 512 512" fill="none" xmlns="http://www.w3.org/2000/svg">
<path d="M274 408.754C274 420.536 264.449 430.087 252.667 430.087V430.087C158.41 430.087 82 353.677 82 259.42V259.42C82 247.638 91.5513 238.087 103.333 238.087L226 238.087C252.51 238.087 274 259.577 274 286.087L274 408.754Z" fill="url(#paint0_linear_2016_59)"/>
<path d="M295.639 327C295.639 340.255 306.467 351.216 319.513 348.872C337.709 345.603 355.127 338.614 370.641 328.248C392.842 313.414 410.145 292.33 420.363 267.662C430.581 242.994 433.254 215.85 428.045 189.663C422.836 163.475 409.979 139.421 391.098 120.541C372.218 101.661 348.164 88.803 321.976 83.594C295.789 78.385 268.645 81.0584 243.977 91.2763C219.309 101.494 198.225 118.797 183.391 140.998C173.025 156.511 166.036 173.929 162.767 192.126C160.423 205.172 171.384 216 184.639 216L242.009 216C252.988 216 261.477 206.379 267.577 197.25V197.25C271.285 191.699 276.556 187.374 282.723 184.819C288.89 182.265 295.676 181.596 302.223 182.899C308.77 184.201 314.784 187.415 319.504 192.135C324.224 196.855 327.438 202.869 328.74 209.416C330.043 215.963 329.374 222.749 326.82 228.916C324.265 235.083 319.94 240.354 314.389 244.062V244.062C305.26 250.162 295.639 258.651 295.639 269.63L295.639 327Z" fill="#F8F2E2"/>
<defs>
<linearGradient id="paint0_linear_2016_59" x1="178" y1="238.087" x2="178" y2="430.087" gradientUnits="userSpaceOnUse">
<stop stop-color="#F4A105"/>
<stop offset="0.5" stop-color="#F1512C"/>
<stop offset="1" stop-color="#E72D3A"/>
</linearGradient>
</defs>
</svg>
